# xmcd
#
# Track frame offsets:
#	150
#	20022
#	35636
#	49924
#	68033
#	87093
#	107901
#	124656
#	145348
#	165542
#	184499
#	200261
#	216286
#	232736
#	251801
#
# Disc length: 3604 seconds
#
# Revision: 1
# Processed by: cddbd v1.5.2PL0 Copyright (c) Steve Scherf et al.
# Submitted via: audiograbber 1.83.01
#
DISCID=d90e120f
DTITLE=Varios - canto e encanto vol13
DYEAR=1900
DGENRE=
TTITLE0=Cesar Oliv. e Rogerio M.-Cabanha Toro Passo
TTITLE1=Delcio Tavares-Canção Pescador
TTITLE2=mano Lima-Cenair
TTITLE3=walther Moraes-Gaviona
TTITLE4=Cesar Passarinho--Campo e Flor
TTITLE5=Jean e Miro Saldanha-Planalto Pampa
TTITLE6=Pedro Ortaça-Guapeando
TTITLE7=Luiz Carlos B.-Romance na Tafona
TTITLE8=Cesar Oli. e Rogerio M.-O Q é Sagrado pra Mim
TTITLE9=Cesar Oli. e Lucio Yanel-Com a Alma Presa na Espora
TTITLE10=Delcio Tavares-O Moço e o Rio
TTITLE11=Alberto e Gabriel Ortaça-Orgulho Gaucho
TTITLE12=Joao Chagas Leite-De Sois, Sabias e Cia
TTITLE13=Cesar Passarinho-Versos e Catto ao Taim
TTITLE14=Tebanos-Os Homend de Preto
EXTD=
EXTT0=
EXTT1=
EXTT2=
EXTT3=
EXTT4=
EXTT5=
EXTT6=
EXTT7=
EXTT8=
EXTT9=
EXTT10=
EXTT11=
EXTT12=
EXTT13=
EXTT14=
PLAYORDER=
